<svg width="352" height="303" viewBox="0 0 352 303" fill="none" xmlns="http://www.w3.org/2000/svg">
<path opacity="0.490829" fill-rule="evenodd" clip-rule="evenodd" d="M174.563 298.126C175.085 298.152 175.608 298.169 176.131 298.186C175.608 298.169 175.085 298.152 174.563 298.126ZM172.221 297.982C172.683 298.016 173.147 298.043 173.611 298.07C173.147 298.043 172.683 298.016 172.221 297.982ZM169.895 297.781C170.331 297.824 170.769 297.861 171.206 297.897C170.769 297.861 170.331 297.824 169.895 297.781ZM167.585 297.524C168.006 297.575 168.427 297.623 168.849 297.669C168.427 297.623 168.006 297.575 167.585 297.524ZM165.296 297.213C165.703 297.273 166.111 297.329 166.519 297.384C166.111 297.329 165.703 297.273 165.296 297.213ZM163.027 296.848C163.422 296.917 163.817 296.982 164.213 297.045C163.817 296.982 163.422 296.917 163.027 296.848ZM160.783 296.432C161.164 296.507 161.546 296.581 161.927 296.652C161.546 296.581 161.164 296.507 160.783 296.432ZM158.56 295.963C158.927 296.045 159.296 296.127 159.665 296.205C159.296 296.127 158.927 296.045 158.56 295.963ZM156.362 295.445C156.716 295.533 157.071 295.621 157.427 295.706C157.071 295.621 156.716 295.533 156.362 295.445ZM154.202 294.881C154.538 294.972 154.873 295.066 155.21 295.154C154.873 295.066 154.538 294.972 154.202 294.881ZM152.112 294.282C152.413 294.372 152.712 294.464 153.013 294.551C152.712 294.464 152.413 294.372 152.112 294.282ZM150.223 293.696C150.429 293.763 150.633 293.833 150.839 293.897C150.633 293.833 150.429 293.763 150.223 293.696ZM144.634 291.706C144.753 291.752 144.873 291.796 144.992 291.842C144.873 291.796 144.753 291.752 144.634 291.706ZM142.576 290.867C142.762 290.946 142.95 291.021 143.137 291.098C142.95 291.021 142.762 290.946 142.576 290.867ZM140.544 289.985C140.747 290.075 140.952 290.163 141.156 290.253C140.952 290.163 140.747 290.076 140.544 289.985ZM138.542 289.058C138.748 289.156 138.954 289.252 139.16 289.347C138.955 289.252 138.748 289.156 138.542 289.058ZM136.571 288.09C136.772 288.191 136.973 288.29 137.175 288.391C136.973 288.29 136.772 288.191 136.571 288.09ZM134.635 287.082C134.825 287.184 135.016 287.284 135.207 287.385C135.016 287.284 134.825 287.184 134.635 287.082ZM132.735 286.038C132.91 286.137 133.086 286.235 133.262 286.333C133.086 286.235 132.91 286.137 132.735 286.038ZM130.876 284.959C131.031 285.052 131.187 285.146 131.344 285.237C131.187 285.146 131.031 285.052 130.876 284.959ZM129.069 283.857C129.197 283.938 129.324 284.018 129.453 284.099C129.324 284.018 129.197 283.938 129.069 283.857ZM127.335 282.747C127.42 282.803 127.505 282.86 127.591 282.916C127.505 282.86 127.42 282.803 127.335 282.747ZM125.736 281.677C125.743 281.682 125.749 281.688 125.756 281.692C125.749 281.688 125.743 281.682 125.736 281.677ZM176.919 298.215C177.708 298.234 178.499 298.245 179.293 298.245C178.499 298.245 177.708 298.234 176.919 298.215ZM182.24 298.194C181.995 298.201 181.751 298.213 181.506 298.219C181.751 298.213 181.995 298.201 182.24 298.194ZM184.564 298.094C184.279 298.11 183.995 298.128 183.709 298.141C183.995 298.128 184.279 298.11 184.564 298.094ZM186.802 297.945C186.502 297.969 186.203 297.995 185.903 298.015C186.203 297.995 186.502 297.969 186.802 297.945ZM189.004 297.747C188.696 297.778 188.389 297.811 188.08 297.84C188.389 297.811 188.696 297.778 189.004 297.747ZM191.172 297.501C190.864 297.541 190.557 297.579 190.248 297.615C190.557 297.579 190.864 297.541 191.172 297.501ZM193.32 297.208C193.015 297.254 192.711 297.298 192.405 297.341C192.711 297.298 193.015 297.254 193.32 297.208ZM195.447 296.868C195.148 296.92 194.85 296.97 194.549 297.018C194.85 296.97 195.148 296.92 195.447 296.868ZM197.557 296.482C197.267 296.538 196.976 296.593 196.686 296.647C196.976 296.593 197.267 296.538 197.557 296.482ZM199.65 296.049C199.371 296.11 199.092 296.168 198.812 296.227C199.092 296.168 199.371 296.11 199.65 296.049ZM201.722 295.571C201.461 295.634 201.2 295.695 200.938 295.756C201.2 295.695 201.461 295.634 201.722 295.571ZM203.778 295.049C203.543 295.111 203.305 295.17 203.069 295.231C203.305 295.17 203.543 295.111 203.778 295.049ZM205.814 294.481C205.62 294.538 205.425 294.591 205.23 294.646C205.425 294.591 205.621 294.538 205.814 294.481ZM207.833 293.87C207.719 293.906 207.606 293.939 207.492 293.975C207.606 293.939 207.719 293.906 207.833 293.87ZM214.052 291.665C214.003 291.685 213.954 291.706 213.905 291.725C213.954 291.706 214.003 291.685 214.052 291.665ZM216.193 290.789C216.081 290.837 215.97 290.885 215.859 290.932C215.97 290.885 216.081 290.837 216.193 290.789ZM218.208 289.908C218.069 289.97 217.932 290.034 217.794 290.096C217.933 290.034 218.069 289.97 218.208 289.908ZM220.158 289.002C220.009 289.074 219.861 289.146 219.711 289.217C219.861 289.146 220.009 289.074 220.158 289.002ZM222.066 288.063C221.913 288.141 221.762 288.218 221.609 288.294C221.762 288.218 221.914 288.141 222.066 288.063ZM223.936 287.091C223.787 287.17 223.638 287.25 223.49 287.328C223.638 287.25 223.787 287.17 223.936 287.091ZM225.773 286.082C225.635 286.161 225.497 286.238 225.358 286.315C225.497 286.238 225.635 286.161 225.773 286.082ZM227.585 285.036C227.46 285.11 227.335 285.183 227.209 285.257C227.335 285.183 227.46 285.11 227.585 285.036ZM229.367 283.953C229.264 284.018 229.159 284.082 229.055 284.146C229.159 284.082 229.264 284.018 229.367 283.953ZM231.121 282.835C231.049 282.882 230.977 282.927 230.905 282.974C230.977 282.927 231.049 282.882 231.121 282.835ZM232.848 281.68C232.827 281.694 232.806 281.708 232.786 281.722C232.806 281.708 232.827 281.694 232.848 281.68ZM97.0464 202.793C97.0464 180.744 105.601 160.016 121.135 144.425C136.67 128.835 157.324 120.249 179.293 120.249C201.261 120.249 221.915 128.835 237.449 144.425C252.984 160.016 261.539 180.744 261.539 202.793C261.539 208.605 260.936 214.405 259.746 220.03C255.895 238.235 245.821 254.801 231.38 266.677C216.747 278.71 198.25 285.336 179.293 285.336C157.324 285.336 136.67 276.75 121.135 261.16C105.601 245.569 97.0464 224.841 97.0464 202.793ZM84.8726 214.28C84.8801 214.339 84.8855 214.398 84.8929 214.456C84.8855 214.398 84.8801 214.339 84.8726 214.28ZM84.6093 211.798C84.6208 211.926 84.6309 212.054 84.6431 212.182C84.6309 212.054 84.6208 211.926 84.6093 211.798ZM84.4042 209.213C84.4184 209.436 84.4299 209.658 84.4461 209.881C84.4299 209.658 84.4191 209.436 84.4042 209.213ZM84.26 206.42C84.2742 206.797 84.2844 207.175 84.3026 207.552C84.2844 207.175 84.2742 206.797 84.26 206.42ZM85.1887 216.67C85.1908 216.684 85.1928 216.698 85.1948 216.712C85.1928 216.699 85.1908 216.684 85.1887 216.67ZM84.2932 198.278C84.2695 198.801 84.2498 199.324 84.2343 199.849C84.2498 199.324 84.2695 198.801 84.2932 198.278ZM84.4319 195.927C84.3947 196.452 84.3608 196.978 84.3324 197.506C84.3608 196.978 84.3947 196.452 84.4319 195.927ZM84.6729 193.066C84.5991 193.796 84.5355 194.529 84.4786 195.264C84.5355 194.529 84.5991 193.796 84.6729 193.066ZM84.9213 190.877C84.8415 191.521 84.7677 192.167 84.7007 192.816C84.7677 192.167 84.8415 191.521 84.9213 190.877ZM85.2233 188.669C85.1495 189.167 85.0804 189.667 85.0141 190.167C85.0804 189.667 85.1495 189.167 85.2233 188.669ZM85.5935 186.361C85.5042 186.877 85.4189 187.393 85.3377 187.912C85.4182 187.393 85.5042 186.877 85.5935 186.361ZM86.1032 183.626C85.9611 184.329 85.8271 185.035 85.6998 185.743C85.8271 185.035 85.9611 184.329 86.1032 183.626ZM86.5615 181.507C86.4343 182.068 86.3124 182.631 86.1953 183.196C86.3124 182.631 86.4343 182.068 86.5615 181.507ZM87.0733 179.373C86.9562 179.839 86.8431 180.305 86.7328 180.774C86.8431 180.305 86.9562 179.839 87.0733 179.373ZM87.6676 177.125C87.5302 177.621 87.3948 178.119 87.2655 178.619C87.3948 178.119 87.5302 177.621 87.6676 177.125ZM88.4278 174.519C88.222 175.186 88.023 175.858 87.8314 176.532C88.023 175.858 88.222 175.186 88.4278 174.519ZM89.0831 172.485C88.9206 172.971 88.7636 173.459 88.6092 173.949C88.7636 173.459 88.9206 172.971 89.0831 172.485ZM89.7925 170.438C89.6402 170.864 89.4899 171.292 89.3423 171.721C89.4899 171.292 89.6402 170.864 89.7925 170.438ZM90.6001 168.272C90.42 168.738 90.2426 169.203 90.07 169.672C90.2426 169.203 90.42 168.738 90.6001 168.272ZM91.5978 165.788C91.3345 166.416 91.0773 167.048 90.8268 167.682C91.0773 167.048 91.3345 166.416 91.5978 165.788ZM92.4386 163.85C92.2504 164.272 92.0663 164.697 91.8842 165.122C92.0663 164.697 92.2504 164.272 92.4386 163.85ZM93.3314 161.909C93.15 162.292 92.9713 162.676 92.7953 163.062C92.9713 162.676 93.15 162.292 93.3314 161.909ZM94.3353 159.852C94.1221 160.275 93.9109 160.7 93.7037 161.126C93.9109 160.7 94.1221 160.275 94.3353 159.852ZM95.5619 157.487C95.2492 158.07 94.9412 158.653 94.6399 159.242C94.9412 158.653 95.2492 158.07 95.5619 157.487ZM96.5746 155.66C96.3729 156.015 96.1745 156.374 95.9769 156.733C96.1745 156.374 96.3729 156.015 96.5746 155.66ZM97.636 153.837C97.437 154.17 97.24 154.504 97.045 154.84C97.24 154.504 97.437 154.17 97.636 153.837ZM98.8098 151.921C98.5783 152.289 98.3474 152.657 98.1213 153.029C98.3474 152.657 98.5783 152.289 98.8098 151.921ZM100.275 149.658C100.007 150.057 99.7453 150.46 99.484 150.863C99.7453 150.46 100.007 150.057 100.275 149.658ZM101.444 147.953C101.237 148.248 101.033 148.545 100.83 148.842C101.033 148.545 101.237 148.248 101.444 147.953ZM102.655 146.267C102.45 146.547 102.245 146.827 102.043 147.109C102.245 146.827 102.45 146.547 102.655 146.267ZM103.953 144.538C103.726 144.834 103.497 145.13 103.273 145.43C103.497 145.13 103.726 144.834 103.953 144.538ZM105.687 142.346C105.465 142.617 105.247 142.892 105.028 143.166C105.247 142.892 105.465 142.617 105.687 142.346ZM107 140.774C106.795 141.014 106.592 141.256 106.39 141.498C106.592 141.256 106.795 141.014 107 140.774ZM108.339 139.239C108.138 139.465 107.936 139.691 107.736 139.92C107.936 139.691 108.138 139.465 108.339 139.239ZM109.664 137.78C109.478 137.981 109.291 138.18 109.106 138.382C109.291 138.18 109.478 137.981 109.664 137.78ZM84.2133 200.543C84.1957 201.291 84.1849 202.04 84.1849 202.793C84.1849 203.594 84.1957 204.394 84.2153 205.192C84.195 204.394 84.1849 203.594 84.1849 202.793C84.1849 202.04 84.1957 201.291 84.2133 200.543ZM111.751 135.597C111.562 135.788 111.376 135.981 111.189 136.173C111.376 135.981 111.562 135.788 111.751 135.597ZM113.192 134.17C112.997 134.36 112.803 134.55 112.61 134.741C112.803 134.55 112.997 134.359 113.192 134.17ZM114.639 132.797C114.451 132.972 114.263 133.146 114.076 133.322C114.263 133.146 114.451 132.972 114.639 132.797ZM115.66 131.856C115.632 131.881 115.604 131.906 115.576 131.931C115.604 131.906 115.632 131.881 115.66 131.856ZM118.424 129.452C118.256 129.593 118.089 129.737 117.921 129.88C118.089 129.737 118.256 129.593 118.424 129.452ZM119.984 128.177C119.797 128.326 119.611 128.477 119.425 128.628C119.611 128.477 119.797 128.326 119.984 128.177ZM121.509 126.98C121.343 127.109 121.175 127.235 121.01 127.364C121.175 127.235 121.343 127.109 121.509 126.98ZM125.661 123.96C125.506 124.066 125.353 124.174 125.198 124.282C125.352 124.174 125.506 124.066 125.661 123.96ZM127.322 122.846C127.147 122.962 126.971 123.077 126.796 123.193C126.971 123.077 127.147 122.962 127.322 122.846ZM128.902 121.833C128.764 121.919 128.625 122.005 128.487 122.092C128.625 122.005 128.764 121.919 128.902 121.833ZM133.419 119.164C133.267 119.248 133.117 119.334 132.966 119.418C133.117 119.333 133.267 119.248 133.419 119.164ZM135.173 118.218C135.004 118.307 134.834 118.397 134.665 118.487C134.834 118.397 135.004 118.307 135.173 118.218ZM136.781 117.391C136.673 117.445 136.564 117.498 136.456 117.553C136.564 117.498 136.673 117.445 136.781 117.391ZM141.656 115.112C141.497 115.182 141.337 115.252 141.178 115.322C141.337 115.252 141.497 115.182 141.656 115.112ZM143.498 114.34C143.326 114.41 143.153 114.48 142.982 114.551C143.153 114.48 143.326 114.41 143.498 114.34ZM145.1 113.702C145.023 113.732 144.945 113.76 144.869 113.79C144.945 113.76 145.023 113.732 145.1 113.702ZM233.617 124.442C233.587 124.42 233.555 124.399 233.525 124.378C233.555 124.399 233.587 124.42 233.617 124.442ZM235.145 125.534C235.111 125.509 235.077 125.484 235.044 125.46C235.077 125.484 235.111 125.509 235.145 125.534ZM240.93 130.105C240.865 130.05 240.8 129.995 240.736 129.94C240.8 129.995 240.865 130.05 240.93 130.105ZM242.389 131.378C242.31 131.309 242.232 131.239 242.154 131.17C242.232 131.239 242.31 131.309 242.389 131.378ZM225.777 119.507C225.771 119.504 225.767 119.501 225.762 119.498C225.767 119.501 225.771 119.504 225.777 119.507ZM247.656 136.441C247.557 136.339 247.457 136.237 247.358 136.135C247.457 136.237 247.557 136.339 247.656 136.441ZM249.024 137.892C248.907 137.766 248.79 137.639 248.672 137.513C248.79 137.639 248.907 137.766 249.024 137.892ZM250.24 139.232C250.168 139.151 250.096 139.068 250.024 138.987C250.096 139.068 250.168 139.151 250.24 139.232ZM253.747 143.403C253.613 143.236 253.479 143.07 253.346 142.904C253.48 143.07 253.613 143.236 253.747 143.403ZM254.998 145.018C254.852 144.826 254.707 144.634 254.559 144.443C254.707 144.634 254.852 144.826 254.998 145.018ZM256.189 146.622C256.052 146.435 255.918 146.246 255.779 146.059C255.918 146.246 256.052 146.435 256.189 146.622ZM257.999 149.196C257.938 149.106 257.876 149.018 257.815 148.929C257.876 149.018 257.938 149.106 257.999 149.196ZM259.145 150.931C258.989 150.688 258.829 150.448 258.671 150.207C258.829 150.448 258.989 150.688 259.145 150.931ZM260.257 152.697C260.096 152.436 259.935 152.175 259.772 151.916C259.935 152.175 260.096 152.436 260.257 152.697ZM261.348 154.514C261.183 154.232 261.019 153.95 260.851 153.67C261.019 153.95 261.183 154.232 261.348 154.514ZM262.819 157.112C262.518 156.556 262.21 156.005 261.897 155.456C262.21 156.005 262.518 156.556 262.819 157.112ZM263.803 158.972C263.635 158.646 263.464 158.324 263.293 158.001C263.464 158.324 263.635 158.646 263.803 158.972ZM264.755 160.872C264.594 160.543 264.432 160.214 264.268 159.888C264.432 160.214 264.594 160.543 264.755 160.872ZM265.7 162.867C265.532 162.502 265.363 162.137 265.191 161.775C265.363 162.137 265.532 162.502 265.7 162.867ZM266.867 165.503C266.609 164.892 266.343 164.284 266.073 163.68C266.344 164.284 266.609 164.892 266.867 165.503ZM267.672 167.471C267.509 167.059 267.341 166.65 267.172 166.241C267.341 166.65 267.509 167.059 267.672 167.471ZM268.445 169.487C268.3 169.097 268.153 168.708 268.003 168.32C268.153 168.708 268.3 169.097 268.445 169.487ZM269.205 171.614C269.058 171.186 268.908 170.758 268.755 170.333C268.908 170.758 269.058 171.186 269.205 171.614ZM270.094 174.315C269.889 173.655 269.676 172.999 269.457 172.345C269.676 172.999 269.889 173.655 270.094 174.315ZM270.708 176.379C270.565 175.881 270.418 175.384 270.267 174.889C270.418 175.384 270.565 175.881 270.708 176.379ZM271.286 178.492C271.17 178.049 271.051 177.608 270.928 177.168C271.051 177.608 271.17 178.049 271.286 178.492ZM271.839 180.721C271.727 180.245 271.613 179.77 271.493 179.297C271.613 179.77 271.727 180.245 271.839 180.721ZM274.291 198.269C274.315 198.788 274.335 199.308 274.35 199.829C274.335 199.308 274.315 198.788 274.291 198.269ZM274.155 195.947C274.19 196.455 274.223 196.964 274.251 197.474C274.223 196.964 274.19 196.455 274.155 195.947ZM274.372 200.537C274.389 201.287 274.4 202.038 274.4 202.793C274.4 202.038 274.389 201.287 274.372 200.537ZM273.926 193.22C273.992 193.885 274.05 194.551 274.102 195.22C274.05 194.551 273.991 193.885 273.926 193.22ZM273.658 190.821C273.748 191.548 273.832 192.276 273.906 193.008C273.832 192.276 273.748 191.548 273.658 190.821ZM273.356 188.624C273.431 189.129 273.5 189.633 273.567 190.139C273.5 189.633 273.431 189.129 273.356 188.624ZM272.996 186.391C273.08 186.872 273.159 187.354 273.235 187.838C273.159 187.354 273.08 186.872 272.996 186.391ZM272.535 183.909C272.65 184.486 272.761 185.064 272.867 185.645C272.761 185.064 272.65 184.486 272.535 183.909ZM273.224 217.849C273.611 215.397 273.905 212.913 274.102 210.403C273.905 212.913 273.611 215.397 273.224 217.849ZM272.002 181.408C272.16 182.102 272.312 182.798 272.455 183.497C272.312 182.798 272.16 182.102 272.002 181.408ZM242.862 273.787C257.531 260.548 268.077 242.8 272.326 222.713L286.162 246.803L352 303L178.708 2.03825L193.36 85.2247L208.746 112.014C208.746 112.014 208.747 112.014 208.747 112.014C199.473 108.985 189.575 107.341 179.293 107.341C168.459 107.341 158.051 109.162 148.35 112.511C148.358 112.508 148.366 112.506 148.374 112.503L164.036 85.2247L178.708 2.03825L5.41537 303L71.3138 246.718L85.9604 221.208C89.9929 241.912 100.691 260.219 115.725 273.787H85.802L5.41537 303H351.323L270.936 273.787H242.862Z" fill="black"/>
<path fill-rule="evenodd" clip-rule="evenodd" d="M173.631 222.834C185.034 222.834 194.277 213.557 194.277 202.113C194.277 190.669 185.034 181.392 173.631 181.392C162.228 181.392 152.985 190.669 152.985 202.113C152.985 213.557 162.228 222.834 173.631 222.834Z" fill="url(#paint0_linear)"/>
<path fill-rule="evenodd" clip-rule="evenodd" d="M169.148 296.088C169.669 296.114 170.193 296.131 170.716 296.148C170.193 296.131 169.669 296.114 169.148 296.088ZM166.805 295.943C167.268 295.977 167.732 296.005 168.196 296.032C167.732 296.005 167.268 295.978 166.805 295.943ZM164.479 295.742C164.915 295.786 165.353 295.823 165.791 295.859C165.353 295.823 164.915 295.786 164.479 295.742ZM162.17 295.486C162.59 295.537 163.012 295.585 163.434 295.631C163.012 295.585 162.59 295.537 162.17 295.486ZM159.881 295.175C160.287 295.235 160.695 295.291 161.104 295.346C160.695 295.291 160.287 295.235 159.881 295.175ZM157.612 294.81C158.007 294.879 158.401 294.943 158.797 295.007C158.401 294.943 158.007 294.879 157.612 294.81ZM155.367 294.394C155.748 294.469 156.13 294.543 156.512 294.614C156.13 294.543 155.748 294.469 155.367 294.394ZM153.144 293.925C153.512 294.007 153.88 294.089 154.25 294.167C153.88 294.089 153.512 294.007 153.144 293.925ZM150.946 293.407C151.301 293.495 151.655 293.583 152.011 293.668C151.655 293.583 151.301 293.495 150.946 293.407ZM148.787 292.843C149.123 292.934 149.458 293.028 149.795 293.116C149.458 293.028 149.123 292.934 148.787 292.843ZM146.697 292.244C146.997 292.334 147.296 292.426 147.598 292.513C147.296 292.426 146.997 292.334 146.697 292.244ZM144.808 291.658C145.014 291.725 145.218 291.795 145.424 291.859C145.218 291.795 145.014 291.725 144.808 291.658ZM139.219 289.667C139.337 289.714 139.458 289.758 139.576 289.804C139.458 289.758 139.337 289.714 139.219 289.667ZM137.16 288.829C137.346 288.908 137.535 288.983 137.721 289.059C137.535 288.983 137.346 288.908 137.16 288.829ZM135.129 287.947C135.332 288.037 135.537 288.125 135.741 288.215C135.537 288.125 135.332 288.038 135.129 287.947ZM133.127 287.02C133.332 287.118 133.539 287.214 133.745 287.309C133.539 287.214 133.332 287.118 133.127 287.02ZM131.156 286.052C131.356 286.153 131.558 286.252 131.76 286.353C131.558 286.252 131.356 286.153 131.156 286.052ZM129.22 285.044C129.409 285.146 129.6 285.246 129.791 285.347C129.6 285.246 129.41 285.146 129.22 285.044ZM127.32 283.999C127.495 284.099 127.67 284.197 127.846 284.295C127.67 284.197 127.495 284.099 127.32 283.999ZM125.46 282.921C125.616 283.014 125.772 283.107 125.929 283.199C125.772 283.107 125.616 283.014 125.46 282.921ZM123.654 281.819C123.781 281.9 123.909 281.98 124.037 282.061C123.909 281.98 123.781 281.9 123.654 281.819ZM121.919 280.709C122.005 280.765 122.089 280.822 122.175 280.878C122.089 280.822 122.005 280.765 121.919 280.709ZM120.32 279.639C120.327 279.644 120.334 279.649 120.341 279.654C120.334 279.649 120.327 279.644 120.32 279.639ZM171.503 296.177C172.292 296.196 173.083 296.206 173.877 296.206C173.083 296.206 172.292 296.196 171.503 296.177ZM176.824 296.156C176.579 296.163 176.336 296.174 176.091 296.181C176.336 296.174 176.579 296.163 176.824 296.156ZM179.149 296.056C178.864 296.072 178.58 296.09 178.294 296.103C178.58 296.09 178.864 296.072 179.149 296.056ZM181.387 295.907C181.087 295.931 180.788 295.956 180.487 295.977C180.788 295.956 181.087 295.931 181.387 295.907ZM183.588 295.709C183.281 295.74 182.974 295.773 182.665 295.802C182.974 295.773 183.281 295.74 183.588 295.709ZM185.756 295.463C185.448 295.503 185.141 295.541 184.832 295.577C185.141 295.541 185.448 295.503 185.756 295.463ZM187.904 295.17C187.6 295.216 187.295 295.26 186.989 295.303C187.295 295.26 187.6 295.216 187.904 295.17ZM190.032 294.83C189.733 294.882 189.434 294.932 189.134 294.98C189.434 294.932 189.733 294.882 190.032 294.83ZM192.141 294.443C191.852 294.5 191.561 294.555 191.271 294.609C191.561 294.555 191.852 294.5 192.141 294.443ZM194.234 294.011C193.955 294.072 193.676 294.13 193.397 294.189C193.676 294.13 193.955 294.072 194.234 294.011ZM196.306 293.533C196.046 293.596 195.784 293.657 195.522 293.718C195.784 293.657 196.046 293.596 196.306 293.533ZM198.363 293.011C198.127 293.073 197.89 293.132 197.653 293.193C197.89 293.132 198.127 293.073 198.363 293.011ZM200.399 292.443C200.205 292.5 200.01 292.553 199.815 292.608C200.01 292.553 200.205 292.5 200.399 292.443ZM202.418 291.832C202.304 291.868 202.19 291.901 202.076 291.937C202.19 291.901 202.304 291.868 202.418 291.832ZM208.636 289.627C208.588 289.647 208.538 289.667 208.49 289.686C208.538 289.667 208.588 289.647 208.636 289.627ZM210.778 288.751C210.666 288.799 210.555 288.847 210.443 288.894C210.555 288.847 210.666 288.799 210.778 288.751ZM212.793 287.87C212.654 287.932 212.517 287.996 212.379 288.058C212.517 287.996 212.654 287.932 212.793 287.87ZM214.742 286.964C214.594 287.036 214.445 287.108 214.296 287.179C214.445 287.108 214.594 287.036 214.742 286.964ZM216.651 286.025C216.498 286.103 216.347 286.18 216.194 286.256C216.347 286.18 216.498 286.103 216.651 286.025ZM218.52 285.053C218.372 285.132 218.223 285.211 218.074 285.29C218.223 285.211 218.372 285.132 218.52 285.053ZM220.357 284.044C220.219 284.122 220.081 284.2 219.942 284.277C220.081 284.2 220.219 284.122 220.357 284.044ZM222.17 282.997C222.045 283.072 221.92 283.145 221.794 283.219C221.92 283.145 222.045 283.072 222.17 282.997ZM223.952 281.915C223.848 281.98 223.743 282.044 223.639 282.108C223.743 282.044 223.848 281.98 223.952 281.915ZM225.706 280.797C225.634 280.844 225.562 280.889 225.49 280.936C225.562 280.889 225.634 280.844 225.706 280.797ZM227.433 279.642C227.412 279.656 227.391 279.67 227.37 279.684C227.391 279.67 227.412 279.656 227.433 279.642ZM91.631 200.755C91.631 178.706 100.186 157.978 115.72 142.387C131.255 126.797 151.908 118.211 173.877 118.211C195.845 118.211 216.5 126.797 232.034 142.387C247.568 157.978 256.123 178.706 256.123 200.755C256.123 206.567 255.52 212.366 254.33 217.992C250.479 236.197 240.406 252.763 225.964 264.639C211.332 276.672 192.834 283.298 173.877 283.298C151.908 283.298 131.255 274.712 115.72 259.122C100.186 243.531 91.631 222.803 91.631 200.755ZM79.4572 212.242C79.4647 212.301 79.4701 212.36 79.4775 212.418C79.4701 212.36 79.4647 212.301 79.4572 212.242ZM79.1939 209.76C79.2054 209.887 79.2156 210.016 79.2278 210.144C79.2156 210.016 79.2054 209.887 79.1939 209.76ZM78.9888 207.175C79.003 207.398 79.0145 207.62 79.0308 207.843C79.0145 207.62 79.0037 207.398 78.9888 207.175ZM78.8446 204.382C78.8588 204.759 78.869 205.137 78.8873 205.514C78.869 205.137 78.8588 204.759 78.8446 204.382ZM79.7734 214.632C79.7754 214.646 79.7774 214.66 79.7794 214.674C79.7774 214.661 79.7754 214.646 79.7734 214.632ZM78.8778 196.24C78.8541 196.763 78.8345 197.286 78.8189 197.811C78.8345 197.286 78.8541 196.763 78.8778 196.24ZM79.0166 193.889C78.9793 194.414 78.9455 194.94 78.917 195.468C78.9455 194.94 78.9793 194.414 79.0166 193.889ZM79.2575 191.028C79.1838 191.758 79.1201 192.491 79.0633 193.226C79.1201 192.491 79.1838 191.758 79.2575 191.028ZM79.506 188.838C79.4261 189.483 79.3523 190.129 79.2853 190.778C79.3523 190.129 79.4261 189.483 79.506 188.838ZM79.8079 186.631C79.7341 187.128 79.665 187.628 79.5987 188.128C79.665 187.628 79.7341 187.128 79.8079 186.631ZM80.1782 184.323C80.0888 184.839 80.0035 185.355 79.9223 185.874C80.0028 185.355 80.0888 184.839 80.1782 184.323ZM80.6879 181.588C80.5457 182.291 80.4117 182.997 80.2844 183.704C80.4117 182.997 80.5457 182.291 80.6879 181.588ZM81.1462 179.469C81.0189 180.03 80.897 180.593 80.7799 181.157C80.897 180.593 81.0189 180.03 81.1462 179.469ZM81.6579 177.335C81.5408 177.801 81.4277 178.267 81.3174 178.735C81.4277 178.267 81.5408 177.801 81.6579 177.335ZM82.2522 175.087C82.1148 175.583 81.9794 176.081 81.8502 176.581C81.9794 176.081 82.1148 175.583 82.2522 175.087ZM83.0124 172.481C82.8066 173.148 82.6076 173.82 82.4161 174.494C82.6076 173.82 82.8066 173.148 83.0124 172.481ZM83.6677 170.447C83.5052 170.933 83.3482 171.421 83.1938 171.911C83.3482 171.421 83.5052 170.933 83.6677 170.447ZM84.3771 168.4C84.2248 168.825 84.0745 169.253 83.927 169.683C84.0745 169.253 84.2248 168.825 84.3771 168.4ZM85.1847 166.234C85.0046 166.7 84.8273 167.165 84.6546 167.634C84.8273 167.165 85.0046 166.7 85.1847 166.234ZM86.1825 163.75C85.9191 164.378 85.6619 165.009 85.4114 165.644C85.6619 165.009 85.9191 164.378 86.1825 163.75ZM87.0232 161.812C86.835 162.234 86.6509 162.659 86.4688 163.084C86.6509 162.659 86.835 162.234 87.0232 161.812ZM87.9161 159.871C87.7346 160.254 87.5559 160.638 87.3799 161.024C87.5559 160.638 87.7346 160.254 87.9161 159.871ZM88.9199 157.814C88.7067 158.237 88.4955 158.661 88.2884 159.088C88.4955 158.661 88.7067 158.237 88.9199 157.814ZM90.1465 155.449C89.8338 156.032 89.5258 156.615 89.2246 157.204C89.5258 156.615 89.8338 156.032 90.1465 155.449ZM91.1592 153.622C90.9575 153.977 90.7591 154.336 90.5615 154.695C90.7591 154.336 90.9575 153.977 91.1592 153.622ZM92.2206 151.798C92.0216 152.132 91.8246 152.466 91.6297 152.802C91.8246 152.466 92.0216 152.132 92.2206 151.798ZM93.3944 149.883C93.1629 150.251 92.9321 150.619 92.706 150.991C92.9321 150.619 93.1629 150.251 93.3944 149.883ZM94.8593 147.62C94.5919 148.019 94.3299 148.422 94.0686 148.825C94.3299 148.422 94.5919 148.019 94.8593 147.62ZM96.0283 145.915C95.8218 146.21 95.6181 146.507 95.4143 146.804C95.6181 146.507 95.8218 146.21 96.0283 145.915ZM97.2393 144.229C97.0342 144.509 96.8298 144.789 96.6274 145.071C96.8298 144.789 97.0342 144.509 97.2393 144.229ZM98.5377 142.5C98.3102 142.796 98.0814 143.092 97.8574 143.392C98.0814 143.092 98.3102 142.796 98.5377 142.5ZM100.271 140.307C100.05 140.579 99.8319 140.854 99.6126 141.128C99.8319 140.854 100.049 140.579 100.271 140.307ZM101.584 138.736C101.38 138.976 101.177 139.218 100.975 139.46C101.177 139.218 101.38 138.976 101.584 138.736ZM102.923 137.201C102.722 137.427 102.521 137.653 102.321 137.881C102.521 137.653 102.722 137.427 102.923 137.201ZM104.249 135.742C104.063 135.943 103.875 136.142 103.691 136.344C103.875 136.142 104.063 135.943 104.249 135.742ZM78.7979 198.505C78.7803 199.253 78.7695 200.002 78.7695 200.755C78.7695 201.556 78.7803 202.356 78.7999 203.153C78.7796 202.356 78.7695 201.556 78.7695 200.755C78.7695 200.002 78.7803 199.253 78.7979 198.505ZM106.335 133.559C106.147 133.749 105.961 133.943 105.774 134.135C105.961 133.943 106.147 133.749 106.335 133.559ZM107.777 132.132C107.582 132.321 107.388 132.512 107.194 132.703C107.388 132.512 107.582 132.321 107.777 132.132ZM109.224 130.759C109.035 130.934 108.847 131.107 108.661 131.284C108.847 131.107 109.035 130.934 109.224 130.759ZM110.244 129.818C110.217 129.843 110.189 129.868 110.161 129.893C110.189 129.868 110.217 129.843 110.244 129.818ZM113.009 127.414C112.84 127.555 112.673 127.699 112.505 127.842C112.673 127.699 112.84 127.555 113.009 127.414ZM114.569 126.138C114.382 126.288 114.196 126.439 114.01 126.59C114.196 126.439 114.382 126.288 114.569 126.138ZM116.094 124.942C115.927 125.071 115.76 125.197 115.595 125.326C115.76 125.197 115.927 125.071 116.094 124.942ZM120.245 121.922C120.09 122.028 119.937 122.136 119.782 122.244C119.937 122.136 120.09 122.028 120.245 121.922ZM121.907 120.808C121.732 120.924 121.556 121.039 121.381 121.155C121.556 121.039 121.732 120.924 121.907 120.808ZM123.486 119.795C123.348 119.881 123.209 119.967 123.071 120.054C123.209 119.967 123.348 119.881 123.486 119.795ZM128.003 117.126C127.852 117.21 127.702 117.296 127.551 117.38C127.702 117.295 127.852 117.21 128.003 117.126ZM129.758 116.18C129.589 116.269 129.419 116.359 129.25 116.449C129.419 116.359 129.589 116.269 129.758 116.18ZM131.366 115.353C131.257 115.407 131.148 115.46 131.041 115.515C131.148 115.46 131.257 115.407 131.366 115.353ZM136.241 113.074C136.081 113.143 135.922 113.214 135.763 113.284C135.922 113.214 136.081 113.143 136.241 113.074ZM138.082 112.302C137.91 112.372 137.738 112.442 137.566 112.513C137.738 112.442 137.91 112.372 138.082 112.302ZM139.685 111.664C139.608 111.694 139.53 111.722 139.454 111.752C139.53 111.722 139.608 111.694 139.685 111.664ZM228.202 122.404C228.171 122.382 228.14 122.361 228.11 122.339C228.14 122.361 228.171 122.382 228.202 122.404ZM229.729 123.496C229.696 123.471 229.662 123.446 229.629 123.422C229.662 123.446 229.696 123.471 229.729 123.496ZM235.514 128.067C235.449 128.012 235.385 127.957 235.32 127.901C235.385 127.957 235.449 128.012 235.514 128.067ZM236.973 129.34C236.895 129.271 236.817 129.201 236.739 129.132C236.817 129.201 236.895 129.271 236.973 129.34ZM220.361 117.469C220.356 117.466 220.352 117.463 220.347 117.46C220.352 117.463 220.356 117.466 220.361 117.469ZM242.241 134.403C242.141 134.3 242.042 134.199 241.942 134.097C242.042 134.199 242.141 134.3 242.241 134.403ZM243.609 135.854C243.492 135.728 243.375 135.601 243.257 135.475C243.375 135.601 243.492 135.728 243.609 135.854ZM244.825 137.194C244.752 137.112 244.681 137.03 244.608 136.949C244.681 137.03 244.752 137.112 244.825 137.194ZM248.331 141.365C248.198 141.197 248.064 141.032 247.931 140.866C248.065 141.032 248.198 141.197 248.331 141.365ZM249.583 142.98C249.437 142.788 249.291 142.596 249.144 142.405C249.291 142.596 249.437 142.788 249.583 142.98ZM250.774 144.584C250.637 144.397 250.502 144.208 250.364 144.021C250.502 144.208 250.637 144.397 250.774 144.584ZM252.584 147.158C252.523 147.068 252.46 146.98 252.4 146.891C252.46 146.98 252.523 147.068 252.584 147.158ZM253.73 148.893C253.573 148.65 253.414 148.41 253.255 148.169C253.414 148.41 253.573 148.65 253.73 148.893ZM254.842 150.658C254.681 150.398 254.52 150.137 254.357 149.878C254.52 150.137 254.681 150.398 254.842 150.658ZM255.932 152.476C255.767 152.194 255.603 151.912 255.436 151.632C255.603 151.912 255.767 152.194 255.932 152.476ZM257.404 155.074C257.102 154.518 256.795 153.967 256.482 153.418C256.795 153.967 257.102 154.518 257.404 155.074ZM258.388 156.934C258.22 156.608 258.048 156.286 257.877 155.963C258.048 156.286 258.22 156.608 258.388 156.934ZM259.339 158.834C259.179 158.504 259.017 158.176 258.853 157.85C259.017 158.176 259.179 158.504 259.339 158.834ZM260.284 160.829C260.116 160.464 259.948 160.099 259.776 159.737C259.948 160.099 260.116 160.464 260.284 160.829ZM261.451 163.465C261.193 162.854 260.927 162.246 260.657 161.642C260.928 162.246 261.193 162.854 261.451 163.465ZM262.257 165.433C262.094 165.021 261.925 164.612 261.757 164.203C261.925 164.612 262.094 165.021 262.257 165.433ZM263.029 167.448C262.885 167.058 262.738 166.67 262.587 166.282C262.738 166.67 262.885 167.058 263.029 167.448ZM263.789 169.576C263.643 169.148 263.493 168.72 263.339 168.295C263.493 168.72 263.643 169.148 263.789 169.576ZM264.679 172.277C264.473 171.617 264.261 170.961 264.042 170.307C264.261 170.961 264.473 171.617 264.679 172.277ZM265.293 174.341C265.15 173.843 265.003 173.346 264.852 172.851C265.003 173.346 265.15 173.843 265.293 174.341ZM265.87 176.453C265.755 176.011 265.635 175.57 265.513 175.13C265.635 175.57 265.755 176.011 265.87 176.453ZM266.424 178.683C266.312 178.207 266.197 177.732 266.077 177.259C266.197 177.732 266.312 178.207 266.424 178.683ZM268.876 196.231C268.9 196.75 268.919 197.27 268.935 197.791C268.919 197.27 268.9 196.75 268.876 196.231ZM268.739 193.909C268.775 194.417 268.807 194.926 268.836 195.436C268.807 194.926 268.775 194.417 268.739 193.909ZM268.956 198.498C268.974 199.248 268.985 200 268.985 200.755C268.985 200 268.974 199.248 268.956 198.498ZM268.51 191.182C268.577 191.847 268.635 192.513 268.687 193.182C268.635 192.513 268.576 191.847 268.51 191.182ZM268.242 188.783C268.332 189.51 268.416 190.238 268.491 190.97C268.416 190.238 268.332 189.51 268.242 188.783ZM267.94 186.586C268.016 187.09 268.085 187.595 268.152 188.101C268.085 187.595 268.016 187.09 267.94 186.586ZM267.581 184.353C267.664 184.834 267.744 185.316 267.82 185.8C267.744 185.316 267.664 184.834 267.581 184.353ZM267.12 181.871C267.235 182.448 267.346 183.026 267.452 183.607C267.346 183.026 267.235 182.448 267.12 181.871ZM267.808 215.811C268.196 213.359 268.489 210.875 268.687 208.365C268.489 210.875 268.196 213.359 267.808 215.811ZM266.587 179.37C266.745 180.064 266.897 180.76 267.04 181.459C266.897 180.76 266.745 180.064 266.587 179.37ZM237.446 271.749C252.115 258.51 262.662 240.761 266.911 220.674L280.746 244.765L346.585 300.962L173.292 0.000137329L187.944 83.1865L203.331 109.976C203.331 109.976 203.331 109.976 203.332 109.976C194.058 106.947 184.16 105.303 173.877 105.303C163.044 105.303 152.635 107.124 142.934 110.473C142.942 110.47 142.951 110.467 142.959 110.465L158.621 83.1865L173.292 0.000137329L0 300.962L65.8985 244.679L80.545 219.17C84.5775 239.874 95.2756 258.181 110.31 271.749H80.3866L0 300.962H345.908L265.52 271.749H237.446Z" fill="url(#paint1_linear)"/>
<defs>
<linearGradient id="paint0_linear" x1="159.891" y1="180.552" x2="143.546" y2="216.039" gradientUnits="userSpaceOnUse">
<stop stop-color="#232323"/>
<stop offset="1"/>
</linearGradient>
<linearGradient id="paint1_linear" x1="57.9644" y1="-6.1014" x2="-49.4628" y2="263.475" gradientUnits="userSpaceOnUse">
<stop stop-color="#232323"/>
<stop offset="1"/>
</linearGradient>
</defs>
</svg>
